<?xml version="1.0" encoding="UTF-8"?>
<!DOCTYPE svg PUBLIC "-//W3C//DTD SVG 1.1//EN" "http://www.w3.org/Graphics/SVG/1.1/DTD/svg11.dtd">
<!-- Creator: CorelDRAW -->
<svg xmlns="http://www.w3.org/2000/svg" xml:space="preserve" width="167.011mm" height="59.5534mm" version="1.1" style="shape-rendering:geometricPrecision; text-rendering:geometricPrecision; image-rendering:optimizeQuality; fill-rule:evenodd; clip-rule:evenodd"
viewBox="0 0 6.8331 2.4366"
 xmlns:xlink="http://www.w3.org/1999/xlink"
 xmlns:xodm="http://www.corel.com/coreldraw/odm/2003">
 <defs>
  <style type="text/css">
   <![CDATA[
    .fil0 {fill:#373435}
    .fil1 {fill:#ED3237}
   ]]>
  </style>
 </defs>
 <g id="Layer_x0020_1">
  <metadata id="CorelCorpID_0Corel-Layer"/>
  <g id="_2783237664000">
   <path class="fil0" d="M6.6398 0.2162c-0.0211,0 -0.0393,0.0075 -0.0513,0.0241 -0.0137,0.0151 -0.0197,0.0393 -0.0197,0.068l0 0.003c0,0.0288 0.0061,0.0529 0.0182,0.0696 0.0136,0.0167 0.0317,0.0257 0.0544,0.0257 0.0483,0 0.0724,-0.0317 0.0724,-0.0924l0 -0.0045c0,-0.0256 -0.0061,-0.0482 -0.0181,-0.0664 -0.0121,-0.0182 -0.0303,-0.0272 -0.0559,-0.0272zm0 -0.0817l0.003 0c0.0408,0 0.0755,0.0075 0.1041,0.0226 0.0288,0.0167 0.0499,0.0363 0.0635,0.0636 0.0076,0.012 0.0121,0.0256 0.0165,0.0423 0.0031,0.0062 0.0045,0.0121 0.0045,0.0196 0.0016,0.0077 0.0016,0.0166 0.0016,0.0243l0 0.0045c0,0.0484 -0.0166,0.0892 -0.0497,0.1239 -0.0333,0.0348 -0.0817,0.0531 -0.142,0.0531 -0.0182,0 -0.0333,-0.0016 -0.0469,-0.0047 -0.0151,-0.0015 -0.0288,-0.006 -0.0423,-0.0121 -0.0256,-0.009 -0.0452,-0.0242 -0.0603,-0.0408 -0.015,-0.0181 -0.0257,-0.0379 -0.0332,-0.059 -0.0046,-0.0105 -0.0061,-0.0211 -0.0076,-0.0317 -0.003,-0.0106 -0.003,-0.0211 -0.003,-0.0318 0,-0.0242 0.0045,-0.0468 0.012,-0.0665 0.0091,-0.0211 0.021,-0.0394 0.0379,-0.0575 0.0346,-0.0333 0.0815,-0.0499 0.1418,-0.0499zm-0.5043 -0.0257l0.053 -0.0696 0.1116 0 -0.0906 0.0696 -0.074 0zm0.0423 0.2555l0.0785 0 -0.0407 -0.1195 -0.0378 0.1195zm-0.0226 -0.2207l0.1253 0 0.1359 0.3357 -0.1238 0 -0.0151 -0.0455 -0.1223 0 -0.0151 0.0455 -0.1207 0 0.1359 -0.3357zm-0.2778 0.1285c-0.0016,-0.0226 -0.0106,-0.0378 -0.0242,-0.0454 -0.0076,-0.0029 -0.0135,-0.0059 -0.0211,-0.0075 -0.0075,-0.0015 -0.0136,-0.0029 -0.0212,-0.0029 -0.0257,0 -0.0437,0.0089 -0.0543,0.0286 -0.0121,0.0182 -0.0166,0.0423 -0.0166,0.068 0,0.0621 0.0241,0.0938 0.0725,0.0938 0.0378,0 0.0588,-0.0197 0.0649,-0.0574l0.1193 0c-0.0031,0.0407 -0.0211,0.0741 -0.0543,0.0997 -0.0152,0.0138 -0.0333,0.0227 -0.0544,0.0288 -0.0211,0.0075 -0.0437,0.0106 -0.071,0.0106 -0.0407,0 -0.077,-0.0077 -0.1071,-0.0213 -0.0302,-0.0136 -0.0544,-0.0348 -0.0695,-0.0605 -0.0091,-0.0137 -0.0151,-0.0273 -0.0197,-0.0423 -0.0044,-0.0167 -0.0059,-0.0333 -0.0059,-0.0515 0,-0.0393 0.009,-0.0725 0.0287,-0.0998 0.0181,-0.0272 0.0423,-0.0468 0.0724,-0.0605 0.0287,-0.012 0.0575,-0.0181 0.0846,-0.0181l0.0045 0c0.0332,0 0.062,0.0029 0.0861,0.0105 0.0228,0.006 0.0423,0.0166 0.0559,0.0302 0.0256,0.0257 0.0422,0.0574 0.0481,0.0967l-0.1176 0zm-0.6537 0.0952l0 -0.0725 0.1722 0 0 0.1845 -0.0815 0 -0.0046 -0.0319c-0.0272,0.0273 -0.065,0.041 -0.1133,0.041 -0.0377,0 -0.0709,-0.0077 -0.0995,-0.0228 -0.0289,-0.015 -0.05,-0.0363 -0.065,-0.0634 -0.0136,-0.0257 -0.0212,-0.0545 -0.0212,-0.0848 0,-0.0529 0.0181,-0.0967 0.0514,-0.1301 0.0166,-0.018 0.0378,-0.0302 0.0619,-0.0393 0.0256,-0.009 0.0543,-0.0135 0.0861,-0.0135l0.0046 0c0.0103,0 0.021,0 0.0316,0.0014 0.0105,0.0014 0.021,0.0031 0.0317,0.006 0.0196,0.0045 0.0363,0.0138 0.0514,0.0243 0.0166,0.009 0.0285,0.0227 0.0376,0.0377 0.0107,0.0151 0.0182,0.0333 0.0227,0.0545l-0.1178 0c-0.009,-0.0287 -0.0302,-0.0423 -0.0648,-0.0423 -0.0211,0 -0.0393,0.0089 -0.0514,0.0256 -0.006,0.0076 -0.0105,0.0181 -0.015,0.0317 -0.003,0.012 -0.0045,0.0257 -0.0045,0.0407 0,0.0274 0.006,0.0485 0.0181,0.0667 0.0121,0.0167 0.0318,0.0257 0.0605,0.0257 0.015,0 0.0285,-0.0045 0.0406,-0.0121 0.012,-0.0076 0.0197,-0.0166 0.0242,-0.0273l-0.0559 0zm-0.6342 -0.2237l0.1164 0 0.1358 0.1829 -0.0045 -0.0756 0 -0.1073 0.1194 0 0 0.3357 -0.1179 0 -0.1344 -0.183 0.0046 0.0756 0 0.1074 -0.1194 0 0 -0.3357zm-0.2687 -0.0257c0,-0.0106 0.0045,-0.0196 0.0106,-0.0273l0.0121 -0.012 0.0136 -0.0076c0.0045,-0.0031 0.0075,-0.006 0.009,-0.0091 0.0031,-0.0015 0.0031,-0.0059 0.0031,-0.0091 0,-0.0045 -0.0015,-0.0091 -0.0046,-0.0106 -0.0045,-0.003 -0.0091,-0.0045 -0.0166,-0.0045 -0.0045,0 -0.0075,0.0031 -0.012,0.006l-0.0045 0.0059c-0.0015,0.0031 -0.0015,0.0062 -0.0015,0.0107l-0.0589 0c0,-0.0091 0.0031,-0.0182 0.0091,-0.0286 0.006,-0.0107 0.0151,-0.0183 0.0302,-0.0243 0.0136,-0.0045 0.0271,-0.0075 0.0408,-0.0075 0.015,0 0.0286,0.0014 0.0392,0.006 0.0121,0.003 0.0212,0.009 0.0287,0.0166 0.006,0.0075 0.0091,0.0166 0.0091,0.0271 0,0.0122 -0.0045,0.0213 -0.0121,0.0289l-0.0151 0.0089 -0.0092 0.0047 -0.0045 0.003c-0.0151,0.0075 -0.0242,0.015 -0.0256,0.0227l-0.0408 0zm-0.0181 0.2465l0.0785 0 -0.0393 -0.1195 -0.0392 0.1195zm-0.0226 -0.2207l0.1268 0 0.136 0.3357 -0.1239 0 -0.0166 -0.0455 -0.1223 0 -0.0151 0.0455 -0.1208 0 0.1359 -0.3357zm-0.5255 0l0.1222 0 0 0.201c0,0.0213 0.0032,0.0363 0.0121,0.0453 0.0077,0.0107 0.0212,0.0151 0.0409,0.0151l0.003 0c0.0197,0 0.0332,-0.0045 0.0422,-0.0151 0.009,-0.0106 0.0137,-0.0256 0.0137,-0.0453l0 -0.201 0.1208 0 0 0.1905c0,0.0528 -0.0151,0.0922 -0.0453,0.1165 -0.0288,0.0256 -0.074,0.0378 -0.1314,0.0378 -0.0589,0 -0.1027,-0.0122 -0.1328,-0.0364 -0.0302,-0.0227 -0.0454,-0.0635 -0.0454,-0.1179l0 -0.1905zm-0.2521 -0.0091l0.0031 0c0.0392,0 0.0739,0.0075 0.1041,0.0226 0.0302,0.0167 0.0529,0.0379 0.068,0.065 0.0075,0.0121 0.0136,0.0258 0.0181,0.0394 0.0045,0.0136 0.0074,0.0271 0.0074,0.0424 0,0.0499 -0.015,0.0922 -0.0451,0.1254l0.0437 0.0393 -0.0528 0.0469 -0.0513 -0.0454c-0.0286,0.0105 -0.0603,0.0166 -0.0967,0.0166 -0.0333,0 -0.0649,-0.0061 -0.0952,-0.0181 -0.0317,-0.0137 -0.0558,-0.0334 -0.074,-0.0605 -0.018,-0.0272 -0.0271,-0.0589 -0.0271,-0.0953l0 -0.0015c0,-0.0302 0.0045,-0.0559 0.0151,-0.0787 0.0106,-0.0227 0.0272,-0.0407 0.0468,-0.0558 0.0197,-0.0136 0.0408,-0.0243 0.0635,-0.0318 0.0226,-0.0077 0.0468,-0.0105 0.0724,-0.0105zm-0.0226 0.2298l0.0529 -0.0501 0.0407 0.0379c0.0013,-0.0061 0.0013,-0.0121 0.0031,-0.0197 0.0015,-0.0076 0.0015,-0.0151 0.0015,-0.0212 0,-0.0272 -0.0061,-0.0498 -0.0167,-0.068 -0.0121,-0.0182 -0.0318,-0.0272 -0.0588,-0.0272 -0.0242,0 -0.0423,0.0075 -0.0528,0.0226 -0.0061,0.0091 -0.0106,0.0182 -0.0151,0.0286 -0.0045,0.0091 -0.0061,0.0197 -0.0061,0.0302l0 0.0092c0,0.0226 0.0061,0.0453 0.0151,0.0665 0.0105,0.0227 0.0302,0.0333 0.0589,0.0333l0.0106 -0.0016 0.009 -0.0029 -0.0422 -0.0379z"/>
   <path class="fil1" d="M6.5809 1.1022c0.1103,-0.1029 0.0228,-0.1286 -0.0724,-0.1119 -0.1026,0.0182 -0.2159,0.0802 -0.3004,0.21 -0.1042,0.1574 -0.0453,0.2754 0.1041,0.1936 0.0876,-0.0498 0.1465,-0.1299 0.2038,-0.257l0.2038 0 -0.5148 0.8104c-0.0242,0.0362 0.0137,0.071 0.0574,0.0801 -0.0604,0.0409 -0.1192,0.0878 -0.1856,0.1165 -0.1224,0.053 -0.1812,-0.0121 -0.0921,-0.1528l0.2944 -0.4686c-0.1162,0.1224 -0.2281,0.1708 -0.2929,0.1073 -0.0981,-0.0983 -0.0196,-0.3658 0.1373,-0.5459 0.1632,-0.186 0.3232,-0.2555 0.4923,-0.2676 0.1178,-0.009 0.2174,0.0347 0.2174,0.1135 0,0.124 -0.1586,0.1678 -0.2522,0.1724zm-1.6713 0.3854c-0.0875,0.1408 -0.0302,0.2057 0.0921,0.1528 0.0663,-0.0288 0.1208,-0.0802 0.1811,-0.121 -0.0437,-0.0089 -0.0755,-0.0408 -0.0528,-0.0756l0.1963 -0.3069 -0.2053 0c-0.0559,0.127 -0.1163,0.2072 -0.2039,0.257 -0.1495,0.0818 -0.2083,-0.0362 -0.1041,-0.1936 0.0845,-0.1299 0.1977,-0.1829 0.3004,-0.204 0.0937,-0.0196 0.1827,0.003 0.074,0.1059 0.0921,-0.0046 0.2461,-0.0484 0.2461,-0.1724 0,-0.0787 -0.0937,-0.1225 -0.2129,-0.1135 -0.169,0.0121 -0.3292,0.0816 -0.4922,0.2676 -0.157,0.1801 -0.2355,0.4476 -0.1373,0.5459 0.0951,0.0938 0.2641,-0.065 0.3185,-0.1422zm-1.9415 0.1694l-0.1178 -0.1678c0.0649,-0.1286 0.1148,-0.2253 0.1706,-0.3538 0.0302,-0.0696 0.0136,-0.1376 -0.0528,-0.1844 0.0256,-0.0333 0.0604,-0.0847 0.1163,-0.115 0.1222,-0.0635 0.1873,0.0242 0.086,0.2662 0.0846,-0.1105 0.1752,-0.2057 0.2688,-0.2859l0.151 0.1014c-0.0845,0.0982 -0.1616,0.2056 -0.2189,0.3629 -0.0318,0.0861 -0.0196,0.189 0.0679,0.2087 -0.0423,0.0423 -0.0981,0.1012 -0.1449,0.136 -0.1253,0.0891 -0.1631,-0.0137 -0.1239,-0.1694 0.0196,-0.0771 0.0499,-0.1482 0.0846,-0.2192 -0.1102,0.124 -0.213,0.2752 -0.2869,0.4203zm1.1429 -0.5548c0.1102,-0.1029 0.0227,-0.1286 -0.0724,-0.1119 -0.1027,0.0182 -0.216,0.0802 -0.302,0.21 -0.1026,0.1574 -0.0438,0.2754 0.1041,0.1936 0.0876,-0.0498 0.1481,-0.1299 0.2054,-0.257l0.2037 0 -0.5163 0.8104c-0.0225,0.0362 0.0151,0.071 0.0589,0.0801 -0.0604,0.0409 -0.1209,0.0878 -0.1871,0.1165 -0.1224,0.053 -0.1798,-0.0121 -0.0922,-0.1528l0.2959 -0.4686c-0.1163,0.1224 -0.228,0.1708 -0.2929,0.1073 -0.0983,-0.0983 -0.0212,-0.3658 0.1374,-0.5459 0.1616,-0.186 0.3231,-0.2555 0.4921,-0.2676 0.1179,-0.009 0.2173,0.0347 0.2173,0.1135 0,0.124 -0.1584,0.1678 -0.252,0.1724zm1.3287 0.5548l-0.1178 -0.1678c0.0649,-0.1286 0.1132,-0.2253 0.169,-0.3538 0.0302,-0.0696 0.0151,-0.1376 -0.0513,-0.1844 0.0241,-0.0333 0.0589,-0.0847 0.1147,-0.115 0.1223,-0.0635 0.1873,0.0242 0.0861,0.2662 0.0861,-0.1105 0.1766,-0.2057 0.2687,-0.2859l0.1509 0.1014c-0.0844,0.0982 -0.1599,0.2056 -0.2189,0.3629 -0.0316,0.0861 -0.0195,0.189 0.0679,0.2087 -0.0408,0.0423 -0.0966,0.1012 -0.145,0.136 -0.1252,0.0891 -0.1631,-0.0137 -0.1237,-0.1694 0.0196,-0.0771 0.0499,-0.1482 0.0845,-0.2192 -0.1101,0.124 -0.2128,0.2752 -0.2852,0.4203zm-0.7911 -1.0025c0.0588,0 0.0771,0.0619 0.0407,0.1376 -0.0363,0.0755 -0.1132,0.1376 -0.1721,0.1376 -0.0574,0 -0.0756,-0.0621 -0.0394,-0.1376 0.0364,-0.0757 0.1134,-0.1376 0.1708,-0.1376zm-0.1843 0.8347c-0.0497,0.0498 -0.1328,0.1149 -0.2083,0.1482 -0.1403,0.0604 -0.2084,-0.0151 -0.1057,-0.1754l0.142 -0.2253c0.0302,-0.0454 -0.009,-0.0757 -0.0378,-0.0833l0.1736 -0.1254c0.1314,-0.0937 0.2416,-0.0347 0.1328,0.1362l-0.1434 0.2252c-0.0332,0.0514 -0.0302,0.0968 0.0467,0.0998z"/>
   <path class="fil0" d="M2.6331 0.1436l0.0271 0.1256 0.0286 -0.1256 0.0634 0 0 0.201 -0.0476 0 0 -0.0363 0.0015 -0.0318 0 -0.0241 0.0017 -0.038 -0.0287 0.1301 -0.0364 0 -0.0285 -0.1301 0.0016 0.0289 0 0.0301 0 0.0136 0 0.0121 0 0.0453 -0.046 0 0 -0.201 0.0634 0zm-0.2299 0l0.1459 0 0 0.0529 -0.0459 0 0 0.1481 -0.0523 0 0 -0.1481 -0.0476 0 0 -0.0529zm-0.2047 0.1209c-0.0112,0.0061 -0.0159,0.0136 -0.0175,0.0227l0 0.0015c0,0.0106 0.0048,0.0167 0.0143,0.0183 0.0064,0 0.0143,-0.003 0.0254,-0.0121l-0.0047 -0.0061 -0.0096 -0.0121 -0.008 -0.012zm0.0112 -0.0469c0.0111,-0.0061 0.0174,-0.0151 0.0174,-0.0242 0,-0.0106 -0.0063,-0.0151 -0.0159,-0.0151 -0.0047,0 -0.0079,0.0014 -0.0111,0.0045 -0.0031,0.0015 -0.0047,0.0061 -0.0047,0.0106 0,0.0075 0.0047,0.015 0.0143,0.0242zm-0.0397 0.0137c-0.0047,-0.0046 -0.0079,-0.0106 -0.0095,-0.0182 -0.0032,-0.006 -0.0047,-0.0121 -0.0047,-0.0196 0,-0.0137 0.0047,-0.0257 0.0142,-0.0364 0.008,-0.0091 0.0221,-0.0135 0.0397,-0.0135 0.0174,0 0.0301,0.0044 0.0397,0.015 0.0095,0.0107 0.0143,0.0243 0.0143,0.0395 0,0.009 -0.0033,0.0182 -0.0064,0.0272 -0.0047,0.0091 -0.0111,0.0166 -0.019,0.0227l0.0126 0.0182c0.0048,-0.0061 0.008,-0.0122 0.0112,-0.0182l0.0427 0c-0.0079,0.0166 -0.0158,0.0333 -0.027,0.0497l0.0365 0.047 -0.0571 0 -0.0125 -0.0166c-0.0064,0.0061 -0.0145,0.0121 -0.0239,0.0166 -0.0096,0.003 -0.0191,0.0061 -0.0302,0.0061 -0.0175,0 -0.0317,-0.0076 -0.0429,-0.0197 -0.0031,-0.006 -0.0062,-0.0105 -0.0094,-0.0167 -0.0016,-0.0059 -0.0016,-0.0135 -0.0016,-0.021 0,-0.012 0.0032,-0.0226 0.0095,-0.0362 0.0048,-0.0106 0.0127,-0.0197 0.0238,-0.0257zm-0.284 -0.0877l0.0524 0 0.0287 0.1329 0.0285 -0.1329 0.0524 0 -0.0541 0.201 -0.0523 0 -0.0555 -0.201zm-0.1094 0.0468l0 0.1072 0.0111 0c0.0254,0 0.0381,-0.018 0.0381,-0.0542l0 -0.0016c0,-0.0196 -0.0033,-0.0333 -0.0096,-0.0408 -0.0048,-0.0075 -0.0158,-0.0106 -0.0301,-0.0106l-0.0094 0zm-0.0523 -0.0468l0.0682 0c0.0174,0 0.0317,0.0029 0.0444,0.009 0.0128,0.0059 0.0222,0.0166 0.0303,0.0318 0.0062,0.0136 0.011,0.0318 0.011,0.0544 0,0.0377 -0.0079,0.0651 -0.0222,0.0816 -0.0159,0.0166 -0.0365,0.0241 -0.0634,0.0241l-0.0682 0 0 -0.201zm-0.257 0l0.0523 0 0 0.0679 0.0493 0 0 -0.0679 0.054 0 0 0.201 -0.054 0 0 -0.0785 -0.0493 0 0 0.0785 -0.0523 0 0 -0.201zm-0.1839 0l0.0522 0 0 0.0679 0.0508 0 0 -0.0679 0.0523 0 0 0.201 -0.0523 0 0 -0.0785 -0.0508 0 0 0.0785 -0.0522 0 0 -0.201zm-0.1842 0l0.0509 0 0.0556 0.1089 -0.0017 -0.0439 0 -0.0649 0.0508 0 0 0.201 -0.0491 0 -0.0572 -0.1103 0.0016 0.047 0 0.0634 -0.0509 0 0 -0.201zm-0.1664 0l0.1458 0 0 0.0529 -0.0476 0 0 0.1481 -0.0523 0 0 -0.1481 -0.0459 0 0 -0.0529zm-0.2522 0l0.0586 0 0.0271 0.0679 0.0284 -0.0679 0.0572 0 -0.0587 0.127 0 0.074 -0.0522 0 0 -0.0725 -0.0603 -0.1285zm-0.154 0l0.146 0 0 0.0529 -0.046 0 0 0.1481 -0.0524 0 0 -0.1481 -0.0476 0 0 -0.0529zm-0.0666 0.1436l0.0476 0 0 0.0575 -0.0476 0 0 -0.0575zm-0.0698 -0.0665c-0.0016,-0.0136 -0.0047,-0.0227 -0.0095,-0.0272 -0.0032,-0.0015 -0.0064,-0.0031 -0.0094,-0.0045 -0.0032,-0.0016 -0.0064,-0.0016 -0.0095,-0.0016 -0.0096,0 -0.0174,0.0061 -0.0223,0.0166 -0.0047,0.0123 -0.0063,0.0258 -0.0063,0.0409 0,0.0378 0.0095,0.056 0.0301,0.056 0.016,0 0.0254,-0.0104 0.027,-0.0347l0.0506 0c-0.0014,0.0257 -0.0094,0.0453 -0.0237,0.0604 -0.0064,0.0076 -0.0142,0.0136 -0.0222,0.0181 -0.0095,0.003 -0.019,0.0061 -0.0301,0.0061 -0.0174,0 -0.0317,-0.0046 -0.0444,-0.0137 -0.0126,-0.0076 -0.0222,-0.0197 -0.0301,-0.0363 -0.0033,-0.0076 -0.0063,-0.0152 -0.008,-0.0257 -0.0016,-0.0091 -0.0016,-0.0197 -0.0016,-0.0303 0,-0.0227 0.0032,-0.0438 0.0112,-0.059 0.008,-0.0166 0.0173,-0.0288 0.0301,-0.0363 0.0127,-0.0076 0.0238,-0.0122 0.0365,-0.0122l0.0015 0c0.0142,0 0.0254,0.0032 0.0365,0.0062 0.0096,0.0044 0.0174,0.0104 0.0221,0.0197 0.0113,0.015 0.0192,0.0347 0.0207,0.0574l-0.0492 0z"/>
   <path class="fil1" d="M1.1623 0.8209c-0.1434,0 -0.2596,0.0711 -0.3367,0.2011 0.0952,-0.3327 0.3428,-0.5428 0.6311,-0.5428 0.2778,0 0.5043,0.2267 0.5043,0.505l0 0.2434 -0.5043 0.505 0 -0.6168c0,-0.1619 -0.1329,-0.2949 -0.2944,-0.2949zm-0.0423 0.2057c0.1616,0 0.2945,0.133 0.2945,0.2947 0,0.1618 -0.1329,0.2951 -0.2945,0.2951 -0.1615,0 -0.2944,-0.1332 -0.2944,-0.2951 0,-0.1618 0.1329,-0.2947 0.2944,-0.2947zm-0.0423 0.7937c0.1435,0 0.2596,-0.071 0.3367,-0.2011 -0.0952,0.3342 -0.3428,0.5428 -0.6311,0.5428 -0.2763,0 -0.5028,-0.2267 -0.5028,-0.505l0 -0.2419 0.5028 -0.5051 0 0.6169c0,0.1618 0.1328,0.2949 0.2944,0.2933zm0.0423 -1.3411l-0.0935 0 -0.7459 0.7484 0 0.0937 0.8395 -0.8421zm-0.1873 0l-0.0919 0 -0.5602 0.5609 0 0.0938 0.6522 -0.6547zm-0.1856 0l-0.0936 0 -0.373 0.375 0 0.0922 0.4665 -0.4672zm-0.1872 0l-0.0935 0 -0.1858 0.1875 0 0.0937 0.2793 -0.2812zm-0.1872 0l-0.0921 0 0 0.0938 0.0921 -0.0938z"/>
   <path class="fil1" d="M2.6736 1.2975l0.456 -1.1551 -1.9159 1.9186c-0.1178,0.1181 -0.2763,0.1694 -0.4378,0.1694 -0.314,0 -0.5708,-0.257 -0.5708,-0.573l0 -0.1754 -0.0908 0.0909 -0.0001 -0.0004 -0.1143 0.1141c0.0153,0.4161 0.3549,0.7499 0.7704,0.7499l0.0057 -0.0001c0.239,-0.0014 0.43,-0.0763 0.584,-0.2289l1.2716 -1.275c-0.1856,0.3383 -0.2917,0.6222 -0.2917,0.8096 -0.0014,0.3327 0.2416,0.3688 0.5875,-0.0847 -0.2523,0.0619 -0.3792,-0.0394 -0.2539,-0.3599z"/>
  </g>
 </g>
</svg>
